<svg xmlns="http://www.w3.org/2000/svg" viewBox="0 0 500 500"><g id="freepik--background-simple--inject-6"><path d="M28.1,282.64s19.2,78.36,97,119.65,171.06,29.51,247,21.91S496.66,365.15,492,300.55,426.24,227,380,160.38,331.62,69.64,256.63,36.48s-172,11.26-209.85,96.05S28.1,282.64,28.1,282.64Z" style="fill:#3B82F6"></path><path d="M28.1,282.64s19.2,78.36,97,119.65,171.06,29.51,247,21.91S496.66,365.15,492,300.55,426.24,227,380,160.38,331.62,69.64,256.63,36.48s-172,11.26-209.85,96.05S28.1,282.64,28.1,282.64Z" style="fill:#fff;opacity:0.7000000000000001"></path></g><g id="freepik--Wall--inject-6"><line x1="65.67" y1="66.67" x2="65.67" y2="416.83" style="fill:none;stroke:#263238;stroke-miterlimit:10"></line><line x1="65.67" y1="53.17" x2="65.67" y2="59.87" style="fill:none;stroke:#263238;stroke-miterlimit:10"></line><line x1="193.18" y1="53.17" x2="193.18" y2="416.83" style="fill:none;stroke:#263238;stroke-miterlimit:10"></line><line x1="320.69" y1="53.17" x2="320.69" y2="416.83" style="fill:none;stroke:#263238;stroke-miterlimit:10"></line><line x1="448.2" y1="105.02" x2="448.2" y2="416.83" style="fill:none;stroke:#263238;stroke-miterlimit:10"></line><line x1="448.2" y1="53.17" x2="448.2" y2="96.28" style="fill:none;stroke:#263238;stroke-miterlimit:10"></line></g><g id="freepik--Board--inject-6"><rect x="88.82" y="102.87" width="291.99" height="173.05" style="fill:#263238"></rect><rect x="90.47" y="107.79" width="288.69" height="163.21" style="fill:#fff;stroke:#263238;stroke-linecap:round;stroke-linejoin:round"></rect><rect x="85.49" y="99.91" width="296.96" height="9.28" style="fill:#263238"></rect><circle cx="238.09" cy="91.43" r="8.35" style="fill:#fff;stroke:#263238;stroke-linecap:round;stroke-linejoin:round"></circle><path d="M242.49,91.43a4.4,4.4,0,1,1-4.4-4.39A4.4,4.4,0,0,1,242.49,91.43Z" style="fill:#3B82F6;stroke:#263238;stroke-miterlimit:10"></path></g><g id="freepik--Graphics--inject-6"><polyline points="142.89 213.78 107.21 213.78 107.21 177.6 167.89 177.6 167.89 213.78 149.68 213.78" style="fill:none;stroke:#263238;stroke-miterlimit:10"></polyline><rect x="155.09" y="231.1" width="48.43" height="28.88" style="fill:none;stroke:#263238;stroke-miterlimit:10"></rect><polyline points="256.97 177.6 263.08 177.6 263.08 213.78 202.4 213.78 202.4 177.6 251.15 177.6" style="fill:none;stroke:#263238;stroke-miterlimit:10"></polyline><polyline points="207.45 124.71 278.67 124.71 278.67 160.9 186.82 160.9 186.82 124.71 200.66 124.71" style="fill:none;stroke:#263238;stroke-miterlimit:10"></polyline><rect x="297.04" y="177.6" width="60.68" height="36.18" style="fill:none;stroke:#263238;stroke-miterlimit:10"></rect><path d="M181.81,142.53s-32.2,4.47-51.12,31.75" style="fill:none;stroke:#263238;stroke-miterlimit:10"></path><line x1="161.21" y1="217.68" x2="165.47" y2="230.12" style="fill:none;stroke:#263238;stroke-miterlimit:10"></line><line x1="205.19" y1="216.56" x2="201.29" y2="228.25" style="fill:none;stroke:#263238;stroke-miterlimit:10"></line><polyline points="160.79 226.02 165.47 230.12 166.64 224.56" style="fill:none;stroke:#263238;stroke-miterlimit:10"></polyline><polyline points="199.38 224.56 201.13 229.24 206.1 226.31" style="fill:none;stroke:#263238;stroke-miterlimit:10"></polyline><polyline points="131.56 168.73 130.69 174.28 136.82 170.48" style="fill:none;stroke:#263238;stroke-miterlimit:10"></polyline><line x1="264.86" y1="194.74" x2="295.26" y2="194.74" style="fill:none;stroke:#263238;stroke-miterlimit:10"></line><polyline points="288.83 190.94 295.56 194.74 289.42 198.54" style="fill:none;stroke:#263238;stroke-miterlimit:10"></polyline><line x1="168.9" y1="194.74" x2="199.3" y2="194.74" style="fill:none;stroke:#263238;stroke-miterlimit:10"></line><polyline points="192.87 190.94 199.59 194.74 193.46 198.54" style="fill:none;stroke:#263238;stroke-miterlimit:10"></polyline><line x1="232.52" y1="163.79" x2="232.52" y2="173.04" style="fill:none;stroke:#263238;stroke-miterlimit:10"></line><polyline points="236.31 166.6 232.51 173.33 228.72 167.19" style="fill:none;stroke:#263238;stroke-miterlimit:10"></polyline><line x1="294.97" y1="205.67" x2="265.73" y2="205.67" style="fill:none;stroke:#263238;stroke-miterlimit:10"></line><polyline points="271.91 201.87 265.45 205.67 271.35 209.47" style="fill:none;stroke:#263238;stroke-miterlimit:10"></polyline><line x1="205.81" y1="135.99" x2="260.77" y2="135.99" style="fill:none;stroke:#263238;stroke-miterlimit:10"></line><line x1="205.81" y1="141.25" x2="260.77" y2="141.25" style="fill:none;stroke:#263238;stroke-miterlimit:10"></line><line x1="205.81" y1="146.51" x2="260.77" y2="146.51" style="fill:none;stroke:#263238;stroke-miterlimit:10"></line><line x1="112.85" y1="190.94" x2="162.26" y2="190.94" style="fill:none;stroke:#263238;stroke-miterlimit:10"></line><line x1="112.85" y1="196.21" x2="162.26" y2="196.21" style="fill:none;stroke:#263238;stroke-miterlimit:10"></line><line x1="112.85" y1="201.47" x2="162.26" y2="201.47" style="fill:none;stroke:#263238;stroke-miterlimit:10"></line><line x1="208.74" y1="190.94" x2="258.14" y2="190.94" style="fill:none;stroke:#263238;stroke-miterlimit:10"></line><line x1="208.74" y1="196.21" x2="258.14" y2="196.21" style="fill:none;stroke:#263238;stroke-miterlimit:10"></line><line x1="208.74" y1="201.47" x2="258.14" y2="201.47" style="fill:none;stroke:#263238;stroke-miterlimit:10"></line><line x1="301.11" y1="190.94" x2="350.51" y2="190.94" style="fill:none;stroke:#263238;stroke-miterlimit:10"></line><line x1="301.11" y1="196.21" x2="350.51" y2="196.21" style="fill:none;stroke:#263238;stroke-miterlimit:10"></line><line x1="301.11" y1="201.47" x2="350.51" y2="201.47" style="fill:none;stroke:#263238;stroke-miterlimit:10"></line><line x1="161.38" y1="240.93" x2="199.09" y2="240.93" style="fill:none;stroke:#263238;stroke-miterlimit:10"></line><line x1="161.38" y1="246.19" x2="199.09" y2="246.19" style="fill:none;stroke:#263238;stroke-miterlimit:10"></line><line x1="161.38" y1="251.46" x2="199.09" y2="251.46" style="fill:none;stroke:#263238;stroke-miterlimit:10"></line><path d="M328.6,140.58a.5.5,0,0,1-.26-.92l.38-.24-.14.08a.5.5,0,0,1-.51-.85l2-1.27-1.75,1a.5.5,0,0,1-.52-.85l3.58-2.34-3.39,2a.5.5,0,0,1-.67-.17.51.51,0,0,1,.15-.68l5.58-3.73-5.44,3.13a.49.49,0,0,1-.66-.16.48.48,0,0,1,.13-.67l8.37-6-8.36,4.83a.5.5,0,0,1-.67-.17.49.49,0,0,1,.14-.67l6-4.16-5.9,3.41A.5.5,0,0,1,326,132a.49.49,0,0,1,.14-.67l3.4-2.29-3.21,1.85a.5.5,0,0,1-.67-.17.49.49,0,0,1,.15-.67l2.19-1.48-2,1.15a.5.5,0,0,1-.54-.83l5.85-4.33-5.79,3.34a.5.5,0,0,1-.55-.83l5.18-4L325,126a.51.51,0,0,1-.67-.16.49.49,0,0,1,.13-.67l2.53-1.87-2.34,1.36a.51.51,0,0,1-.67-.16.5.5,0,0,1,.12-.67l2.07-1.57-1.87,1.08a.49.49,0,0,1-.66-.16.5.5,0,0,1,.1-.67l1-.81-.8.46a.49.49,0,0,1-.62-.1.51.51,0,0,1,0-.63l1.58-2-1.44.83a.5.5,0,0,1-.55,0,.51.51,0,0,1-.19-.51l.15-.61a.54.54,0,0,1-.42-.25.51.51,0,0,1,.19-.68l.72-.42a.5.5,0,0,1,.73.55l-.13.51,2.64-1.52a.5.5,0,0,1,.64.74l-1.57,2,4.73-2.73a.51.51,0,0,1,.66.15.5.5,0,0,1-.11.67l-1,.82,2.5-1.45a.5.5,0,0,1,.55.83l-2.07,1.57,3.41-2a.51.51,0,0,1,.67.16.5.5,0,0,1-.12.67l-2.54,1.87,3.81-2.2a.49.49,0,0,1,.55.82l-5.18,4,6.83-4a.51.51,0,0,1,.67.16.5.5,0,0,1-.12.67l-5.86,4.33,7.22-4.16a.5.5,0,0,1,.67.16.5.5,0,0,1-.14.68l-2.2,1.47,2.84-1.64a.5.5,0,0,1,.53.84l-3.39,2.29,4-2.32a.5.5,0,0,1,.53.84l-6,4.16,6.82-3.94a.5.5,0,0,1,.53.84l-8.37,6,9.32-5.39a.5.5,0,0,1,.67.17.48.48,0,0,1-.14.67l-5.59,3.75,6.07-3.51a.5.5,0,0,1,.52.85l-3.58,2.34,3.83-2.21a.49.49,0,0,1,.67.17.48.48,0,0,1-.15.67l-2,1.28,2.07-1.2a.49.49,0,0,1,.67.17.51.51,0,0,1-.15.68l-.38.24.43-.25a.5.5,0,0,1,.53.84L343.12,133l6-3.47a.49.49,0,0,1,.67.16.5.5,0,0,1-.14.68l-.13.08h0a.5.5,0,0,1,.54.84l-1.12.79,1.06-.6a.49.49,0,0,1,.62.75l-1.9,2.19,1.84-1.06a.48.48,0,0,1,.57.06.5.5,0,0,1,.14.56l-.2.47a.5.5,0,0,1,.49.25.5.5,0,0,1-.18.68l-1.06.61a.49.49,0,0,1-.7-.62l.17-.42-3.15,1.82a.5.5,0,0,1-.62-.76l1.9-2.19L340.63,138a.5.5,0,0,1-.66-.16.48.48,0,0,1,.13-.67l1.12-.8-4.15,2.39a.5.5,0,0,1-.67-.17.49.49,0,0,1,.15-.67l.12-.09-2.77,1.6a.49.49,0,0,1-.66-.16.48.48,0,0,1,.13-.67l5.79-4.07-10.31,5.95A.45.45,0,0,1,328.6,140.58Z" style="fill:#3B82F6"></path><path d="M313.19,154.58A20.68,20.68,0,0,1,305.91,139c0-11.8,10.23-21.36,22.85-21.36s22.86,9.56,22.86,21.36-10.23,21.36-22.86,21.36a24.07,24.07,0,0,1-9.61-2" style="fill:none;stroke:#263238;stroke-miterlimit:10"></path><line x1="285.78" y1="134.39" x2="300.21" y2="134.39" style="fill:none;stroke:#263238;stroke-miterlimit:10"></line><line x1="285.78" y1="139.36" x2="300.21" y2="139.36" style="fill:none;stroke:#263238;stroke-miterlimit:10"></line><line x1="285.78" y1="144.34" x2="300.21" y2="144.34" style="fill:none;stroke:#263238;stroke-miterlimit:10"></line><line x1="111.35" y1="219.24" x2="136.73" y2="219.24" style="fill:none;stroke:#263238;stroke-miterlimit:10"></line><line x1="111.35" y1="224.22" x2="136.73" y2="224.22" style="fill:none;stroke:#263238;stroke-miterlimit:10"></line><line x1="106.08" y1="154.54" x2="131.46" y2="154.54" style="fill:none;stroke:#263238;stroke-miterlimit:10"></line><line x1="111.35" y1="229.19" x2="136.73" y2="229.19" style="fill:none;stroke:#263238;stroke-miterlimit:10"></line><line x1="111.35" y1="239.64" x2="136.73" y2="239.64" style="fill:none;stroke:#263238;stroke-miterlimit:10"></line><line x1="111.35" y1="244.62" x2="136.73" y2="244.62" style="fill:none;stroke:#263238;stroke-miterlimit:10"></line><line x1="111.35" y1="249.6" x2="136.73" y2="249.6" style="fill:none;stroke:#263238;stroke-miterlimit:10"></line><polyline points="322.68 118.18 328.85 140.51 351.42 135.36" style="fill:none;stroke:#263238;stroke-miterlimit:10"></polyline><polyline points="106.35 123.9 106.35 148.76 146.27 148.76" style="fill:none;stroke:#263238;stroke-miterlimit:10"></polyline><rect x="110.49" y="127.29" width="8.29" height="21.47" style="fill:#3B82F6;stroke:#263238;stroke-miterlimit:10"></rect><rect x="131.58" y="132.18" width="8.29" height="16.57" style="fill:#3B82F6;stroke:#263238;stroke-miterlimit:10"></rect><rect x="121.04" y="120.51" width="8.29" height="28.25" style="fill:#3B82F6;stroke:#263238;stroke-miterlimit:10"></rect></g><g id="freepik--Plants--inject-6"><path d="M58.29,284.11s0-4.18-5.85-10-9.61-9.19-9.61-9.19-2.93,9.61,2.51,15.46a102.6,102.6,0,0,0,12.95,11.28Z" style="fill:#3B82F6"></path><path d="M49.8,310.21s0-4.18-5.85-10S34.34,291,34.34,291s-2.93,9.61,2.5,15.46a103.11,103.11,0,0,0,13,11.28Z" style="fill:#3B82F6"></path><path d="M57.92,291.23s.45-4.16,6.88-9.36,10.53-8.12,10.53-8.12,1.9,9.86-4.12,15.11a103.64,103.64,0,0,1-14.08,9.85Z" style="fill:#3B82F6"></path><path d="M47.67,322.05s.87-4.08,7.82-8.58,11.32-7,11.32-7,.85,10-5.69,14.59a103.28,103.28,0,0,1-15,8.32Z" style="fill:#3B82F6"></path><path d="M49.59,355.66s0-4.18,5.86-10,9.61-9.19,9.61-9.19,2.92,9.61-2.51,15.46a102.34,102.34,0,0,1-13,11.28Z" style="fill:#3B82F6"></path><path d="M49.5,363.86s.59-4.13-4.37-10.76-8.21-10.46-8.21-10.46-4.26,9.1.29,15.66a102.52,102.52,0,0,0,11.22,13Z" style="fill:#3B82F6"></path><path d="M43.73,388.18s0-4.18,5.85-10,9.61-9.2,9.61-9.2,2.93,9.61-2.51,15.46a102.18,102.18,0,0,1-13,11.29Z" style="fill:#3B82F6"></path><path d="M47.63,410.22s-1.05-4.05,3.12-11.19,7-11.33,7-11.33,5.26,8.56,1.49,15.6a103.78,103.78,0,0,1-9.68,14.2Z" style="fill:#3B82F6"></path><path d="M58.82,283a119.29,119.29,0,0,1-1.6,13c-2.31,12-8.1,19.66-10.41,30.45s4.33,24.7,2.55,38.56-7.17,21.58-5.63,30.83,9.64,34.3,9.64,34.3" style="fill:none;stroke:#263238;stroke-linecap:round;stroke-linejoin:round"></path><line x1="57.87" y1="294.01" x2="64.17" y2="289.17" style="fill:none;stroke:#263238;stroke-linecap:round;stroke-linejoin:round"></line><line x1="58.16" y1="288.43" x2="55.52" y2="283.74" style="fill:none;stroke:#263238;stroke-linecap:round;stroke-linejoin:round"></line><path d="M47.16,326s5.28-4,10.71-7.91" style="fill:none;stroke:#263238;stroke-linecap:round;stroke-linejoin:round"></path><path d="M49.8,317.73s-4.4-8.62-9.38-14.34" style="fill:none;stroke:#263238;stroke-linecap:round;stroke-linejoin:round"></path><path d="M49.8,361.61A65.47,65.47,0,0,1,61.09,346.5" style="fill:none;stroke:#263238;stroke-linecap:round;stroke-linejoin:round"></path><path d="M48.78,367.47a74.07,74.07,0,0,0-5.72-10.85c-3.08-4.54-3.52-5.13-3.52-5.13" style="fill:none;stroke:#263238;stroke-linecap:round;stroke-linejoin:round"></path><path d="M43.73,395.86a70.17,70.17,0,0,1,4.75-9.62,61.49,61.49,0,0,1,6.16-8.06" style="fill:none;stroke:#263238;stroke-linecap:round;stroke-linejoin:round"></path><path d="M49.54,417.5a17.91,17.91,0,0,1,1.58-9.26c2.2-4.25,4.69-9.83,5.72-12" style="fill:none;stroke:#263238;stroke-linecap:round;stroke-linejoin:round"></path><path d="M20,339.94s-.46-2.62,2.58-6.92,5-6.81,5-6.81,2.88,5.71.1,10a65,65,0,0,1-6.9,8.48Z" style="fill:#3B82F6"></path><path d="M28.14,355.39s-.46-2.62,2.58-6.93,5-6.8,5-6.8,2.87,5.71.1,10a65.49,65.49,0,0,1-6.9,8.49Z" style="fill:#3B82F6"></path><path d="M21,344.37s-.73-2.56-5.33-5.12-7.48-4-7.48-4-.12,6.4,4.23,9A64.7,64.7,0,0,0,22.29,349Z" style="fill:#3B82F6"></path><path d="M30.76,362.58s-1-2.46-5.84-4.53-7.86-3.14-7.86-3.14.56,6.37,5.16,8.53A66.28,66.28,0,0,0,32.55,367Z" style="fill:#3B82F6"></path><path d="M33.2,383.87s-.45-2.62-4.76-5.66-7-4.72-7-4.72-.8,6.35,3.25,9.43A65.23,65.23,0,0,0,34,388.59Z" style="fill:#3B82F6"></path><path d="M34.15,389s-.82-2.53,1.57-7.22,4-7.45,4-7.45,3.66,5.24,1.52,9.85a64.43,64.43,0,0,1-5.62,9.37Z" style="fill:#3B82F6"></path><path d="M41.49,410.14s.31-2.64,4.43-5.92,6.75-5.11,6.75-5.11,1.15,6.29-2.71,9.59a65.26,65.26,0,0,1-9,6.2Z" style="fill:#3B82F6"></path><path d="M40.41,403.62S40,401,35.65,398s-7-4.73-7-4.73-.79,6.35,3.26,9.43a65.4,65.4,0,0,0,9.34,5.67Z" style="fill:#3B82F6"></path><path d="M40.35,417.87s.23-2.65-3.17-6.68-5.6-6.35-5.6-6.35-2.37,5.94.76,9.94A65.06,65.06,0,0,0,40,422.64Z" style="fill:#3B82F6"></path><path d="M19.53,339.33a76.67,76.67,0,0,0,2.41,8c2.75,7.25,7.21,11.45,9.84,18s0,16,2.58,24.46,6.84,12.75,6.88,18.72S38.92,431,38.92,431" style="fill:none;stroke:#263238;stroke-linecap:round;stroke-linejoin:round"></path><line x1="21.32" y1="346.1" x2="16.84" y2="343.75" style="fill:none;stroke:#263238;stroke-linecap:round;stroke-linejoin:round"></line><line x1="20.53" y1="342.64" x2="21.68" y2="339.41" style="fill:none;stroke:#263238;stroke-linecap:round;stroke-linejoin:round"></line><path d="M31.5,365s-3.74-1.91-7.57-3.81" style="fill:none;stroke:#263238;stroke-linecap:round;stroke-linejoin:round"></path><path d="M29,360.11a53.36,53.36,0,0,1,4.33-10" style="fill:none;stroke:#263238;stroke-linecap:round;stroke-linejoin:round"></path><path d="M33.72,387.62A41.91,41.91,0,0,0,25,379.37" style="fill:none;stroke:#263238;stroke-linecap:round;stroke-linejoin:round"></path><path d="M35,391.19a47.23,47.23,0,0,1,2.4-7.43c1.44-3.18,1.65-3.6,1.65-3.6" style="fill:none;stroke:#263238;stroke-linecap:round;stroke-linejoin:round"></path><path d="M41,413a39.73,39.73,0,0,1,4.82-5A25.79,25.79,0,0,0,49,405.24" style="fill:none;stroke:#263238;stroke-linecap:round;stroke-linejoin:round"></path><path d="M41.24,408.44a44.94,44.94,0,0,0-4-5.52,39.43,39.43,0,0,0-4.74-4.39" style="fill:none;stroke:#263238;stroke-linecap:round;stroke-linejoin:round"></path><path d="M40,422.64A11.45,11.45,0,0,0,38,417c-1.84-2.42-4-5.65-4.89-6.92" style="fill:none;stroke:#263238;stroke-linecap:round;stroke-linejoin:round"></path></g><g id="freepik--Clock--inject-6"><circle cx="435.78" cy="155.01" r="36.27" transform="translate(186.2 544.43) rotate(-76.92)" style="fill:#263238;stroke:#263238;stroke-miterlimit:10"></circle><circle cx="435.78" cy="155.01" r="30.81" transform="translate(-25.95 182.22) rotate(-22.95)" style="fill:#fff;stroke:#263238;stroke-miterlimit:10"></circle><polyline points="445.3 135.26 435.78 155.01 449.38 155.01" style="fill:none;stroke:#263238;stroke-miterlimit:10"></polyline><path d="M439.24,155a3.46,3.46,0,1,1-3.46-3.45A3.45,3.45,0,0,1,439.24,155Z" style="fill:#3B82F6;stroke:#263238;stroke-miterlimit:10"></path></g><g id="freepik--characters-3--inject-6"><path d="M239.66,248.72,235,241.94s.92-10.9-.12-12.6S217,225.67,216,226.93s2.54,2.4,2.54,2.4-2.4,1.06-2.15,2.27c.37,1.78,3.44,2,3.44,2s-2.44,1.63-2.14,2.69c.24.84,2.68,1.5,2.68,1.5s-2.47,1.12-.45,2.55,3.73,2.91,3.73,2.91-1.4,3,2.39,5.61,10.34,7.36,10.34,7.36Z" style="fill:#fff;stroke:#263238;stroke-linecap:round;stroke-linejoin:round"></path><path d="M216.63,222.39l-3.73-.31,0,1.15,3,1.69A15.37,15.37,0,0,1,216.63,222.39Z" style="fill:#263238;stroke:#263238;stroke-linecap:round;stroke-linejoin:round"></path><path d="M231.29,229.94a1.39,1.39,0,0,1-.49-.07L216,225.2a1.48,1.48,0,1,1,.89-2.82l14.8,4.67a1.48,1.48,0,0,1-.4,2.89Z" style="fill:#fff;stroke:#263238;stroke-linecap:round;stroke-linejoin:round"></path><path d="M239,232.85a2.16,2.16,0,0,1-.66-.1l-7.64-2.41a2,2,0,1,1,1.19-3.76l7.64,2.41a2,2,0,0,1,1.29,2.47A2,2,0,0,1,239,232.85Z" style="fill:#263238;stroke:#263238;stroke-linecap:round;stroke-linejoin:round"></path><path d="M232.84,235.08a55.83,55.83,0,0,0-2.4-5.86c-1.05-1.94-3.07-3.61-3.87-5.56s-2.94,1.07-2.15,2.53,2.58,3.63,2.61,4.62.29,1.72-.85,5-1.77,7,.78,9.62" style="fill:#fff;stroke:#263238;stroke-linecap:round;stroke-linejoin:round"></path><line x1="218.58" y1="229.33" x2="227.03" y2="230.81" style="fill:none;stroke:#263238;stroke-linecap:round;stroke-linejoin:round"></line><path d="M219.87,233.61c1-.28,6.31,2.16,6.31,2.16" style="fill:none;stroke:#263238;stroke-linecap:round;stroke-linejoin:round"></path><line x1="220.41" y1="237.8" x2="224.8" y2="239.27" style="fill:none;stroke:#263238;stroke-linecap:round;stroke-linejoin:round"></line><path d="M298.83,235.69s-2.52-1.49-3.63,2.5-4.37,11-5.81,12.52-15.6,15.54-15.6,15.54-6.08-4.77-7.51-3a5.73,5.73,0,0,1-2.41,2l-24.28-19.05-9,13.61s33,30.16,35.76,31.07,4.71.6,5.69.08,19.1-14.16,19.1-14.16,11.05-35.66,12-36.92S298.83,235.69,298.83,235.69Z" style="fill:#3B82F6;stroke:#263238;stroke-linecap:round;stroke-linejoin:round"></path><path d="M266.22,266.33s4.92,5.68,4.92,12.87" style="fill:#3B82F6;stroke:#263238;stroke-linecap:round;stroke-linejoin:round"></path><path d="M274.17,268.6s1.51,3.79-.76,12.11" style="fill:#3B82F6;stroke:#263238;stroke-linecap:round;stroke-linejoin:round"></path><path d="M309.65,191.68s-10.72-7-9.45-13.65,25.31-12,39.13-7.51,16.63,25.17,14.81,37.93-2.92,41.88-2.92,41.88l-46.89,1.38s4.37-34.1,5.28-44.88S309.65,191.68,309.65,191.68Z" style="fill:#263238;stroke:#263238;stroke-linecap:round;stroke-linejoin:round"></path><path d="M285.65,379.43c1,10.19,2.9,55.09,4,61.74H338.4c-.1-7.66-.23-59.4.87-63.63,1.39-5.29,3.34-22.93,1.19-33.05s-4.76-15-4.76-15l-50.6-.05.15,4.15S284.3,365,285.65,379.43Z" style="fill:#263238;stroke:#263238;stroke-linecap:round;stroke-linejoin:round"></path><path d="M296.47,348.87c2,1.37,4,2.35,4,4.33,1,17.78,4.94,67.72,6.33,85.71" style="fill:none;stroke:#4c4c4c;stroke-linecap:round;stroke-linejoin:round"></path><path d="M311,235l24.74.92s-19.86,30.57-19.69,47.37,3.5,51.62,3.5,51.62-10.88,8.61-22.13,7c-1.22-.18-1.87-10.26-1.87-10.26s-.72,9.79-1.55,9.64c-6.3-1.13-8.75-7.64-8.75-7.64L286.56,300s0-22.07,2.46-28.41,19.08-34.5,19.08-34.5Z" style="fill:#fff;stroke:#263238;stroke-linecap:round;stroke-linejoin:round"></path><path d="M310,254.48s-7.65,15.9-10.45,25.22-4,51.91-4,51.91" style="fill:none;stroke:#263238;stroke-linecap:round;stroke-linejoin:round"></path><path d="M332.76,235.68s-17.35,25.88-20.7,35.2-5.59,45-5.15,60.12,5.22,31.8,5.22,31.8a93.79,93.79,0,0,0,42.09-2.89s-6.06-26.83-9-35.64a116.85,116.85,0,0,1-4.14-17.67S361,243.08,361,242.1s-.39-2-2.38-2.57S332.76,235.68,332.76,235.68Z" style="fill:#3B82F6;stroke:#263238;stroke-linecap:round;stroke-linejoin:round"></path><polyline points="316.86 334.68 342.61 332.62 342.95 336.74 331.97 338.11" style="fill:#3B82F6;stroke:#263238;stroke-linecap:round;stroke-linejoin:round"></polyline><path d="M310.77,238.3s-20.67,36.53-21.13,43.13-3.52,37-5.22,46.61-9.05,28.27-9.05,28.27-1.89-8.18-1.34-11.82,8.51-24.3,9.36-28.94,2-21.15,1.8-28.39-.7-12.5.8-17.81,12.84-33.66,12.84-33.66l16.45-.81Z" style="fill:#3B82F6;stroke:#263238;stroke-linecap:round;stroke-linejoin:round"></path><polygon points="306.29 235.28 302.85 251.03 311.69 244.17 306.29 235.28" style="fill:#fff;stroke:#263238;stroke-linecap:round;stroke-linejoin:round"></polygon><polygon points="316.82 227.64 306.29 235.28 310.26 245.67 310.04 254.48 321.98 236.77 316.82 227.64" style="fill:#fff;stroke:#263238;stroke-linecap:round;stroke-linejoin:round"></polygon><path d="M316.21,223.5s-2,14.73-2.63,18.65S310,254.48,310,254.48s18.77-18.15,19.7-19.65,4.17-16,4.17-16S321.83,223.34,316.21,223.5Z" style="fill:#fff;stroke:#263238;stroke-linecap:round;stroke-linejoin:round"></path><path d="M315.64,227.63c2.56,1.6,4.55,1.6,7.51,1.14s7-3.24,9.72-5.43c.6-2.55,1-4.51,1-4.51s-12.08,4.51-17.7,4.67C316.21,223.5,316,225.22,315.64,227.63Z" style="fill:#263238;stroke:#263238;stroke-linecap:round;stroke-linejoin:round"></path><path d="M322.22,178.85l-13.85,10.91s-1.4,10.55-1.92,17.9A19.06,19.06,0,0,0,313,223.84c4,3.55,6.22,3.73,10.11,3.12s9.63-5.17,11.77-7.19,6.12-8,6.12-8,3.19.64,4.13-.85a10.82,10.82,0,0,0,1.15-2.24s-13.17-7.43-18.58-16.8S322.22,178.85,322.22,178.85Z" style="fill:#fff;stroke:#263238;stroke-linecap:round;stroke-linejoin:round"></path><path d="M317.91,198.28a14.3,14.3,0,0,1-1.34,4.44c-.93,1.49-4.57,2.33-2.57,4a8.82,8.82,0,0,0,5.18,1.56" style="fill:none;stroke:#263238;stroke-linecap:round;stroke-linejoin:round"></path><path d="M313.89,211.11s7.42,3.2,12.19-1.1" style="fill:none;stroke:#263238;stroke-linecap:round;stroke-linejoin:round"></path><path d="M316.37,212.26s1.1,4.12,3.52,3.31,4.52-4,4.52-4A59.26,59.26,0,0,1,316.37,212.26Z" style="fill:none;stroke:#263238;stroke-linecap:round;stroke-linejoin:round"></path><path d="M327.25,200.2c0,1.08-.43,2-1,2s-1.12-.84-1.15-1.92.43-2,1-2S327.22,199.13,327.25,200.2Z" style="fill:#263238"></path><path d="M315.6,198.84c0,1.08-.43,2-1,2s-1.12-.84-1.15-1.92.43-2,1-2S315.57,197.76,315.6,198.84Z" style="fill:#263238"></path><path d="M311.68,194.31a3.84,3.84,0,0,1,5.63.08" style="fill:none;stroke:#263238;stroke-linecap:round;stroke-linejoin:round"></path><path d="M322.94,195s5.56-2.11,7.9,2.7" style="fill:none;stroke:#263238;stroke-linecap:round;stroke-linejoin:round"></path><polygon points="319.86 239.53 310.04 254.48 324.47 246.72 319.86 239.53" style="fill:#fff;stroke:#263238;stroke-linecap:round;stroke-linejoin:round"></polygon><polygon points="336.34 226.57 319.86 239.53 324.66 253.07 340.49 234.76 336.34 226.57" style="fill:#fff;stroke:#263238;stroke-linecap:round;stroke-linejoin:round"></polygon><path d="M316.31,303.38A24.15,24.15,0,0,1,310,300.6c-3.69-2.2-7.62-1.43-10.91-1.33s-5.58.83-5.21,2.13,3.66,1.21,4.65,1.18,2.68,1.57,2.68,1.57l-8.23,2s-2.58,1.73-.55,3.64,2.4,1.48,2.4,1.48,3.11,4.85,6.41,5.08,16.71-3.13,16.71-3.13Z" style="fill:#fff;stroke:#263238;stroke-linecap:round;stroke-linejoin:round"></path><path d="M339.63,265.58c.39,2,2.52,31.43,2.52,31.43L315,303.41l1.45,15.45s48.59-5.72,49.49-8.71-2.27-54.63-2-57.6,4.23-13-7.63-13" style="fill:#3B82F6;stroke:#263238;stroke-linecap:round;stroke-linejoin:round"></path><path d="M344.17,260.66s7.94-10.22,16.65-9.84" style="fill:#3B82F6;stroke:#263238;stroke-linecap:round;stroke-linejoin:round"></path><path d="M344.17,264.44s6.81-3.78,13.62-3.78" style="fill:#3B82F6;stroke:#263238;stroke-linecap:round;stroke-linejoin:round"></path></g><g id="freepik--character-1--inject-6"><path d="M40.66,441.17V383.31a1.72,1.72,0,0,0-1.72-1.72H31.85a1.73,1.73,0,0,0-1.73,1.72v57.86Z" style="fill:#4c4c4c;stroke:#263238;stroke-linecap:round;stroke-linejoin:round"></path><path d="M31.83,441.17V383.31a1.73,1.73,0,0,0-1.73-1.72H23a1.72,1.72,0,0,0-1.72,1.72v57.86Z" style="fill:#263238;stroke:#263238;stroke-linecap:round;stroke-linejoin:round"></path><path d="M35.82,441.17H162.39a12.78,12.78,0,0,0-4.32-5.6c-5.74-3.62-60.41-12.08-60.41-12.08l-56.79-.91-2.72.91s-3,4.23-2.71,6.34C35.59,430.9,35.66,436.08,35.82,441.17Z" style="fill:#263238;stroke:#263238;stroke-linecap:round;stroke-linejoin:round"></path><path d="M87.39,313.84s-13.29,7.55-17.82,11.78S57.49,343.75,56.88,352.2,49.63,393,49.63,393,36,419.56,38.15,423.49s58,0,59.51,0-1.51-16.61-1.51-16.61,21.14-32.63,22-41.39-5.44-32.62-6.65-38.06S90.11,312.63,87.39,313.84Z" style="fill:#fff;stroke:#263238;stroke-linecap:round;stroke-linejoin:round"></path><path d="M77,360s10.57,10,15,13.35" style="fill:none;stroke:#263238;stroke-linecap:round;stroke-linejoin:round"></path><path d="M72,367.77s19.47,6.67,24.47,7.23" style="fill:none;stroke:#263238;stroke-linecap:round;stroke-linejoin:round"></path><path d="M128.77,280s1.51,11.18,1.21,14.5-3.32,14.8-4.23,17.22-1.81,5.13-5.13,4.83a11.91,11.91,0,0,1-5.44-1.81l-3.32,11.17-23-13.29,3-6s-3.32-5.43-4.23-14.5,4.23-19.33,10.88-23.25,18.12-2.42,21.44.3S128.77,280,128.77,280Z" style="fill:#fff;stroke:#263238;stroke-linecap:round;stroke-linejoin:round"></path><path d="M87.69,308.1c1.21.31,27.19,12.09,27.49,15.11s1.51,12.38,1.51,12.38a107.24,107.24,0,0,0-17.22-12.08,106.46,106.46,0,0,1-13.89-8.76Z" style="fill:#fff;stroke:#263238;stroke-linecap:round;stroke-linejoin:round"></path><path d="M110.65,255.24s7.85-3.32,14.19-1.81,8.76,8.76,8.76,14.8-3.32,13.29-4.53,13.59-4.23-14.19-10-18.42A39.28,39.28,0,0,1,110.65,255.24Z" style="fill:#3B82F6;stroke:#263238;stroke-linecap:round;stroke-linejoin:round"></path><path d="M101,257.06s12.39-6.65,23.26,2.71,7.25,18.73,4.83,22.05-2.41,9.67-4.23,10.88-2.11-4.83-4.22-6S118.8,290,116.39,296s-13.29,14.8-19,14.2-12.69-7-16.62-20.24-1.2-27.49,6-32A15,15,0,0,1,101,257.06Z" style="fill:#3B82F6;stroke:#263238;stroke-linecap:round;stroke-linejoin:round"></path><path d="M125,262.75s2.4,6.94-3.74,14.67-14.4,12-20.53,8.27-6.41-8-6.41-8" style="fill:none;stroke:#263238;stroke-linecap:round;stroke-linejoin:round"></path><path d="M84.48,279S83.14,299.83,95.68,302,115.15,291,115.15,291" style="fill:none;stroke:#263238;stroke-linecap:round;stroke-linejoin:round"></path><ellipse cx="88.45" cy="266.72" rx="12.54" ry="12.69" style="fill:#3B82F6;stroke:#263238;stroke-linecap:round;stroke-linejoin:round"></ellipse><path d="M85.81,264.89s1.6-8.27,6.13-9.34" style="fill:none;stroke:#263238;stroke-linecap:round;stroke-linejoin:round"></path><path d="M85.28,266s9.06-3.2,13.33.27" style="fill:none;stroke:#263238;stroke-linecap:round;stroke-linejoin:round"></path><path d="M84.74,267.55s-4,2.67-2.66,8.81" style="fill:none;stroke:#263238;stroke-linecap:round;stroke-linejoin:round"></path><path d="M122.43,293.6s-.91-9.06-3.63-8.76-1.51,13.9,0,16a1.78,1.78,0,0,0,3,.31" style="fill:#fff;stroke:#263238;stroke-linecap:round;stroke-linejoin:round"></path><polygon points="377.73 428.9 97.23 428.9 106.69 405.09 314.62 405.09 377.73 428.9" style="fill:#b5b5b5;stroke:#263238;stroke-linecap:round;stroke-linejoin:round"></polygon><rect x="100.34" y="433.66" width="273.54" height="7.51" style="fill:#263238;stroke:#263238;stroke-linecap:round;stroke-linejoin:round"></rect><rect x="97.23" y="428.9" width="280.5" height="8.84" style="fill:#4c4c4c;stroke:#263238;stroke-linecap:round;stroke-linejoin:round"></rect><polygon points="202.9 408.14 211.03 420.97 145.18 420.97 151.59 408.14 202.9 408.14" style="fill:#fff"></polygon><polygon points="190.5 411.99 198.63 424.81 132.77 424.81 139.19 411.99 190.5 411.99" style="fill:#fff"></polygon><path d="M110.35,341.33,123,400.23l49.24,6.95s14.8-6,16-6,3.32,3.62,4.23,4.83,2.41,3,3,3.93.9,5.43,0,6.64-2.72,4.53-4.54,4.23,0-5.13,0-5.13-10.57,4.22-13.89,4.22-10-3-10-3S111,423.19,107.63,422a10.52,10.52,0,0,1-6.35-5.44c-1.2-2.41-20.54-67.06-20.54-67.06" style="fill:#fff;stroke:#263238;stroke-linecap:round;stroke-linejoin:round"></path><path d="M192.51,406c-.91-1.21-3-4.83-4.23-4.83s-16,6-16,6l-28.06-4a31.17,31.17,0,0,1,1.35,15.94c11.71-1.2,21.57-2.32,21.57-2.32s6.65,3,10,3S191,415.64,191,415.64s-1.81,4.83,0,5.13,3.63-3,4.54-4.23.6-5.74,0-6.64S193.41,407.18,192.51,406Z" style="fill:#fff;stroke:#263238;stroke-linecap:round;stroke-linejoin:round"></path><line x1="13.76" y1="441.17" x2="492" y2="441.17" style="fill:none;stroke:#263238;stroke-linecap:round;stroke-linejoin:round"></line></g><g id="freepik--Device--inject-6"><polygon points="276.46 421.37 329.62 421.37 329.62 419.66 250.48 407.82 252.4 409.53 276.46 421.37" style="fill:#fff;stroke:#263238;stroke-linecap:round;stroke-linejoin:round"></polygon><polygon points="276.46 419.66 329.62 419.66 301.54 408.1 252.4 407.82 276.46 419.66" style="fill:#fff;stroke:#263238;stroke-linecap:round;stroke-linejoin:round"></polygon><polygon points="285.12 410.45 290.1 410.45 287.56 409.39 282.68 409.43 285.12 410.45" style="fill:#fff;stroke:#263238;stroke-linecap:round;stroke-linejoin:round;stroke-width:0.75px"></polygon><polygon points="295.23 414.68 297.78 415.75 302.76 415.75 300.21 414.68 295.23 414.68" style="fill:#fff;stroke:#263238;stroke-linecap:round;stroke-linejoin:round;stroke-width:0.75px"></polygon><polygon points="304.46 413.08 298.95 413.08 300.41 413.69 305.94 413.69 304.46 413.08" style="fill:#fff;stroke:#263238;stroke-linecap:round;stroke-linejoin:round;stroke-width:0.75px"></polygon><polygon points="292.85 413.69 297.84 413.69 296.38 413.08 291.4 413.08 292.85 413.69" style="fill:#fff;stroke:#263238;stroke-linecap:round;stroke-linejoin:round;stroke-width:0.75px"></polygon><polygon points="296.58 412.09 302.05 412.09 300.49 411.45 295.05 411.45 296.58 412.09" style="fill:#fff;stroke:#263238;stroke-linecap:round;stroke-linejoin:round;stroke-width:0.75px"></polygon><polygon points="277.56 410.45 282.55 410.45 280.16 409.45 275.27 409.5 277.56 410.45" style="fill:#fff;stroke:#263238;stroke-linecap:round;stroke-linejoin:round;stroke-width:0.75px"></polygon><polygon points="287.49 411.45 289.02 412.09 294.01 412.09 292.48 411.45 287.49 411.45" style="fill:#fff;stroke:#263238;stroke-linecap:round;stroke-linejoin:round;stroke-width:0.75px"></polygon><polygon points="311.92 418.51 317.65 418.51 313.37 416.75 307.71 416.75 311.92 418.51" style="fill:#fff;stroke:#263238;stroke-linecap:round;stroke-linejoin:round;stroke-width:0.75px"></polygon><polygon points="300.15 416.75 304.36 418.51 309.35 418.51 305.14 416.75 300.15 416.75" style="fill:#fff;stroke:#263238;stroke-linecap:round;stroke-linejoin:round;stroke-width:0.75px"></polygon><polygon points="292.59 416.75 296.8 418.51 301.79 418.51 297.58 416.75 292.59 416.75" style="fill:#fff;stroke:#263238;stroke-linecap:round;stroke-linejoin:round;stroke-width:0.75px"></polygon><polygon points="290.02 416.75 280.28 416.75 283.76 418.51 294.23 418.51 290.02 416.75" style="fill:#fff;stroke:#263238;stroke-linecap:round;stroke-linejoin:round;stroke-width:0.75px"></polygon><polygon points="292.68 410.45 298.07 410.45 295.32 409.32 290.08 409.37 292.68 410.45" style="fill:#fff;stroke:#263238;stroke-linecap:round;stroke-linejoin:round;stroke-width:0.75px"></polygon><polygon points="302.79 414.68 305.34 415.75 310.96 415.75 308.36 414.68 302.79 414.68" style="fill:#fff;stroke:#263238;stroke-linecap:round;stroke-linejoin:round;stroke-width:0.75px"></polygon><polygon points="295.21 415.75 292.65 414.68 287.67 414.68 290.22 415.75 295.21 415.75" style="fill:#fff;stroke:#263238;stroke-linecap:round;stroke-linejoin:round;stroke-width:0.75px"></polygon><polygon points="274.99 410.45 272.75 409.52 266.12 409.57 267.85 410.45 274.99 410.45" style="fill:#fff;stroke:#263238;stroke-linecap:round;stroke-linejoin:round;stroke-width:0.75px"></polygon><polygon points="288.82 413.08 283.84 413.08 285.29 413.69 290.28 413.69 288.82 413.08" style="fill:#fff;stroke:#263238;stroke-linecap:round;stroke-linejoin:round;stroke-width:0.75px"></polygon><polygon points="279.93 411.45 281.46 412.09 286.45 412.09 284.92 411.45 279.93 411.45" style="fill:#fff;stroke:#263238;stroke-linecap:round;stroke-linejoin:round;stroke-width:0.75px"></polygon><polygon points="282.72 413.69 281.27 413.08 273.04 413.08 274.25 413.69 282.72 413.69" style="fill:#fff;stroke:#263238;stroke-linecap:round;stroke-linejoin:round;stroke-width:0.75px"></polygon><polygon points="271.08 412.09 278.89 412.09 277.36 411.45 269.82 411.45 271.08 412.09" style="fill:#fff;stroke:#263238;stroke-linecap:round;stroke-linejoin:round;stroke-width:0.75px"></polygon><polygon points="285.1 414.68 276.21 414.68 278.32 415.75 287.65 415.75 285.1 414.68" style="fill:#fff;stroke:#263238;stroke-linecap:round;stroke-linejoin:round;stroke-width:0.75px"></polygon><polygon points="276.46 419.66 274.54 419.66 237.77 366.64 239.59 366.09 263.66 366.09 276.46 419.66" style="fill:#fff;stroke:#263238;stroke-linecap:round;stroke-linejoin:round"></polygon><polygon points="274.54 419.66 250.48 407.82 237.68 366.09 261.74 366.09 274.54 419.66" style="fill:#fff;stroke:#263238;stroke-linecap:round;stroke-linejoin:round"></polygon></g><g id="freepik--characters-2--inject-6"><path d="M484.92,441.17V376.89a1.73,1.73,0,0,0-1.73-1.73H459.77a1.73,1.73,0,0,0-1.73,1.73v64.28Z" style="fill:#263238;stroke:#263238;stroke-linecap:round;stroke-linejoin:round"></path><path d="M476.45,441.17V376.89a1.72,1.72,0,0,0-1.73-1.73H451.31a1.72,1.72,0,0,0-1.73,1.73v64.28Z" style="fill:#4c4c4c;stroke:#263238;stroke-linecap:round;stroke-linejoin:round"></path><path d="M382.62,338.69S372.3,345.57,371,349.8s-9,28.31-9.79,30.16-7.14,11.64-7.14,11.64l-33.86,1.58s-15.34-3.43-16.67-3.43-14.55,8.73-15.61,11.11-3.43,5.82-2.38,6.61,2.65-.53,2.65-.53.53,3.7,7.14,2.38,13.23-6.08,13.23-6.08,8.2,4,11.37,3.17l.27-.08v3.52s44.71,2.38,46.56,1.85,11.64-12.43,11.64-12.43l11.37-61.38S389.23,332.07,382.62,338.69Z" style="fill:#3B82F6;stroke:#263238;stroke-linecap:round;stroke-linejoin:round"></path><path d="M320.92,394.1l-.64-.92h-.09s-15.34-3.43-16.67-3.43-14.55,8.73-15.61,11.11-3.43,5.82-2.38,6.61,2.65-.53,2.65-.53.53,3.7,7.14,2.38,13.23-6.08,13.23-6.08,8.2,4,11.37,3.17l.27-.08v3.52Z" style="fill:#4c4c4c;stroke:#263238;stroke-linecap:round;stroke-linejoin:round"></path><path d="M383.88,441.17h1.05c-.81-1.92-1.52-3.68-1.81-4.64-.84-2.82-11-39.54-12.14-44.9s-.57-13,2.26-23.73,9.38-29.21,9.38-29.21l-9.38,13.12s-7.91,30.5-7.91,34.45,3.95,24,7.91,33.89C375.53,425.88,380.29,434.73,383.88,441.17Z" style="fill:#3B82F6;stroke:#263238;stroke-linecap:round;stroke-linejoin:round"></path><path d="M386.85,331.28s-9.78,15.34-12.43,25.93-4.76,19.84-4.76,29.36,10.58,36.51,12.17,39.95,18.78,4.49,24.07-11.91,7.67-63.75,4.5-74.6S393.47,324.14,386.85,331.28Z" style="fill:#fff;stroke:#263238;stroke-linecap:round;stroke-linejoin:round"></path><path d="M384.1,329.06c-.65,1-9.44,5.86-9.44,5.86l-.33,9.11,2.61-4.88L381,351.24l4.37-22.51Z" style="fill:gray;stroke:#263238;stroke-linecap:round;stroke-linejoin:round"></path><path d="M385.08,441.17h72c-2.37-6.34-11.53-30.9-11.81-32-.33-1.31-7.81-59.25-15.63-70s-26-14.65-29.94-12.37c0,0-13,26.37-17.91,38.74s-8.14,36.78-8.14,40.36,6.84,26,6.84,26Z" style="fill:#3B82F6;stroke:#263238;stroke-linecap:round;stroke-linejoin:round"></path><polyline points="436.94 421.8 405.81 431.07 407.8 435.04 425.02 429.75" style="fill:none;stroke:#263238;stroke-linecap:round;stroke-linejoin:round"></polyline><path d="M368.71,283.23s-2.5,7.72-2.56,9.31a34.35,34.35,0,0,0,.11,3.55,3.29,3.29,0,0,1-.44,1.81c-.52.84-6.37,6.47-5.68,7.6s4.73,5.62,4.73,5.62,2.83,13.49,6.62,15.05,9.14.6,9.14.6l1.93,5.27,23.64-7.75-.36-7.77s2.37-13.84-.35-23.78S379.12,272,368.71,283.23Z" style="fill:#fff;stroke:#263238;stroke-linecap:round;stroke-linejoin:round"></path><path d="M369.47,299.09c-.28,1.15-.87,2-1.31,1.89s-.58-1.13-.3-2.28.86-2,1.31-1.89S369.74,297.94,369.47,299.09Z" style="fill:#263238"></path><path d="M367.79,293.85a3.76,3.76,0,0,1,4.63,2.64" style="fill:#fff;stroke:#263238;stroke-linecap:round;stroke-linejoin:round"></path><path d="M365.48,313s2.64,2.65,7.27,1" style="fill:#fff;stroke:#263238;stroke-linecap:round;stroke-linejoin:round"></path><path d="M383.2,264.31a12,12,0,0,0-8.81-7.25c-6.74-1.3-11.56,8.1-9.87,11.71s2.45,4.43-.79,4.61-9.45,8.61-4,13.78,12.06-2.22,12.39.42-.56,5,2.61,5.11,8.38-.22,7.56,1.83-1,6.8,2,7.53,4.88-3,7-2.47,5,7.28,3.11,11-3.14,3.73-3.36,4.64,5.65,7.12,11.68,6,13.87-3.06,14.79-9.56-1-7.92,1.5-10.2,4.89-3,4.18-6.68-3-4.88-2.26-7.91S418.66,270,405.7,264,383.2,264.31,383.2,264.31Z" style="fill:#263238;stroke:#263238;stroke-linecap:round;stroke-linejoin:round"></path><polygon points="408.69 316.98 378.89 334.27 381.03 351.24 412.83 325.96 408.69 316.98" style="fill:#fff;stroke:#263238;stroke-linecap:round;stroke-linejoin:round"></polygon><path d="M330.72,397.42s-6-2.23-9.8-3.32c-6.52-1.87-12.63-4.65-14.91-4s-13.38,8.29-13.38,8.29-3.91,9.44-3.58,10.75,2.71-.8,2.71-.8-1.41,1.77-.11,3.08,2.61-1.31,2.61-1.31-.33,3.26,1.62,2.93a2.29,2.29,0,0,0,2.14-1.77s.14,1.77,1.77,1.77,5.21-6.83,5.21-6.83l6.18.32s4.89,2.61,7.82,2.93,6.51-1.63,6.51-1.63l3.9,1,3.26-9.44Z" style="fill:#fff;stroke:#263238;stroke-linecap:round;stroke-linejoin:round"></path><path d="M291.76,408.34s3.33-8,3.86-8.52,7.19-4.26,7.19-4.26" style="fill:none;stroke:#263238;stroke-linecap:round;stroke-linejoin:round"></path><path d="M294.26,410.11s4-8.16,4.43-8.56,5.45-2.92,5.45-2.92" style="fill:none;stroke:#263238;stroke-linecap:round;stroke-linejoin:round"></path><path d="M298,411.27s3.86-7.45,4.53-7.85,2.39-1.33,2.39-1.33" style="fill:none;stroke:#263238;stroke-linecap:round;stroke-linejoin:round"></path><path d="M417,338.5s-20.51,13.34-20.18,18.55,1.95,5.21,1.95,5.21l-10.42,39.06s-3.25-2.6-3.58.66l-.32,3.25-54.37-9.11-5.53,13.67s22.46,8.79,38.09,14.32,31.9,11.72,33.52,8.79S430,381.79,432,378.21s2-10.09,2-10.09" style="fill:#3B82F6;stroke:#263238;stroke-linecap:round;stroke-linejoin:round"></path><path d="M398.75,362.26s6.18-12.69,21.16-13.67" style="fill:none;stroke:#263238;stroke-linecap:round;stroke-linejoin:round"></path></g></svg>